<mxfile host="app.diagrams.net" agent="Mozilla/5.0 (Windows NT 10.0; Win64; x64) AppleWebKit/537.36 (KHTML, like Gecko) Chrome/130.0.0.0 Safari/537.36" version="24.8.3">
  <diagram name="Страница — 1" id="Pmj8p4q8cfQ6SrEYaSxL">
    <mxGraphModel dx="733" dy="916" grid="0" gridSize="10" guides="1" tooltips="1" connect="1" arrows="1" fold="1" page="1" pageScale="1" pageWidth="827" pageHeight="1169" math="0" shadow="0">
      <root>
        <mxCell id="0" />
        <mxCell id="1" parent="0" />
        <mxCell id="X9wXeaOY0Pi4Yc3S6K9o-65" value="" style="ellipse;whiteSpace=wrap;html=1;aspect=fixed;dashed=1;" vertex="1" parent="1">
          <mxGeometry x="68.36999999999999" y="63.37" width="313.26" height="313.26" as="geometry" />
        </mxCell>
        <mxCell id="X9wXeaOY0Pi4Yc3S6K9o-11" value="" style="ellipse;whiteSpace=wrap;html=1;aspect=fixed;" vertex="1" parent="1">
          <mxGeometry x="350" y="130" width="10" height="10" as="geometry" />
        </mxCell>
        <mxCell id="X9wXeaOY0Pi4Yc3S6K9o-16" value="" style="endArrow=none;html=1;rounded=0;" edge="1" parent="1" source="X9wXeaOY0Pi4Yc3S6K9o-13" target="X9wXeaOY0Pi4Yc3S6K9o-11">
          <mxGeometry width="50" height="50" relative="1" as="geometry">
            <mxPoint x="310" y="260" as="sourcePoint" />
            <mxPoint x="340" y="140" as="targetPoint" />
          </mxGeometry>
        </mxCell>
        <mxCell id="X9wXeaOY0Pi4Yc3S6K9o-18" value="" style="triangle;whiteSpace=wrap;html=1;rotation=-90;" vertex="1" parent="1">
          <mxGeometry x="201.73000000000002" y="210" width="46.72" height="75" as="geometry" />
        </mxCell>
        <mxCell id="X9wXeaOY0Pi4Yc3S6K9o-13" value="" style="ellipse;whiteSpace=wrap;html=1;aspect=fixed;" vertex="1" parent="1">
          <mxGeometry x="220" y="215" width="10" height="10" as="geometry" />
        </mxCell>
        <mxCell id="X9wXeaOY0Pi4Yc3S6K9o-19" value="" style="endArrow=none;html=1;rounded=0;" edge="1" parent="1">
          <mxGeometry width="50" height="50" relative="1" as="geometry">
            <mxPoint x="410" y="180" as="sourcePoint" />
            <mxPoint x="600" y="180" as="targetPoint" />
          </mxGeometry>
        </mxCell>
        <mxCell id="X9wXeaOY0Pi4Yc3S6K9o-20" value="" style="endArrow=none;html=1;rounded=0;" edge="1" parent="1">
          <mxGeometry width="50" height="50" relative="1" as="geometry">
            <mxPoint x="410" y="260" as="sourcePoint" />
            <mxPoint x="600" y="260" as="targetPoint" />
          </mxGeometry>
        </mxCell>
        <mxCell id="X9wXeaOY0Pi4Yc3S6K9o-21" value="" style="endArrow=none;html=1;rounded=0;" edge="1" parent="1">
          <mxGeometry width="50" height="50" relative="1" as="geometry">
            <mxPoint x="420" y="180" as="sourcePoint" />
            <mxPoint x="440" y="160" as="targetPoint" />
          </mxGeometry>
        </mxCell>
        <mxCell id="X9wXeaOY0Pi4Yc3S6K9o-22" value="" style="endArrow=none;html=1;rounded=0;" edge="1" parent="1">
          <mxGeometry width="50" height="50" relative="1" as="geometry">
            <mxPoint x="440" y="180" as="sourcePoint" />
            <mxPoint x="460" y="160" as="targetPoint" />
          </mxGeometry>
        </mxCell>
        <mxCell id="X9wXeaOY0Pi4Yc3S6K9o-23" value="" style="endArrow=none;html=1;rounded=0;" edge="1" parent="1">
          <mxGeometry width="50" height="50" relative="1" as="geometry">
            <mxPoint x="480" y="160" as="sourcePoint" />
            <mxPoint x="460" y="180" as="targetPoint" />
          </mxGeometry>
        </mxCell>
        <mxCell id="X9wXeaOY0Pi4Yc3S6K9o-24" value="" style="endArrow=none;html=1;rounded=0;" edge="1" parent="1">
          <mxGeometry width="50" height="50" relative="1" as="geometry">
            <mxPoint x="500" y="160" as="sourcePoint" />
            <mxPoint x="480" y="180" as="targetPoint" />
          </mxGeometry>
        </mxCell>
        <mxCell id="X9wXeaOY0Pi4Yc3S6K9o-25" value="" style="endArrow=none;html=1;rounded=0;" edge="1" parent="1">
          <mxGeometry width="50" height="50" relative="1" as="geometry">
            <mxPoint x="500" y="180" as="sourcePoint" />
            <mxPoint x="520" y="160" as="targetPoint" />
          </mxGeometry>
        </mxCell>
        <mxCell id="X9wXeaOY0Pi4Yc3S6K9o-26" value="" style="endArrow=none;html=1;rounded=0;" edge="1" parent="1">
          <mxGeometry width="50" height="50" relative="1" as="geometry">
            <mxPoint x="520" y="180" as="sourcePoint" />
            <mxPoint x="540" y="160" as="targetPoint" />
          </mxGeometry>
        </mxCell>
        <mxCell id="X9wXeaOY0Pi4Yc3S6K9o-27" value="" style="endArrow=none;html=1;rounded=0;" edge="1" parent="1">
          <mxGeometry width="50" height="50" relative="1" as="geometry">
            <mxPoint x="540" y="180" as="sourcePoint" />
            <mxPoint x="560" y="160" as="targetPoint" />
          </mxGeometry>
        </mxCell>
        <mxCell id="X9wXeaOY0Pi4Yc3S6K9o-2" value="" style="rounded=0;whiteSpace=wrap;html=1;" vertex="1" parent="1">
          <mxGeometry x="450" y="190" width="120" height="60" as="geometry" />
        </mxCell>
        <mxCell id="X9wXeaOY0Pi4Yc3S6K9o-17" value="" style="endArrow=none;html=1;rounded=0;entryX=1.045;entryY=0.732;entryDx=0;entryDy=0;exitX=-0.02;exitY=0.24;exitDx=0;exitDy=0;exitPerimeter=0;entryPerimeter=0;" edge="1" parent="1" source="X9wXeaOY0Pi4Yc3S6K9o-5" target="X9wXeaOY0Pi4Yc3S6K9o-11">
          <mxGeometry width="50" height="50" relative="1" as="geometry">
            <mxPoint x="510" y="220" as="sourcePoint" />
            <mxPoint x="380" y="200" as="targetPoint" />
          </mxGeometry>
        </mxCell>
        <mxCell id="X9wXeaOY0Pi4Yc3S6K9o-30" value="" style="endArrow=none;html=1;rounded=0;" edge="1" parent="1">
          <mxGeometry width="50" height="50" relative="1" as="geometry">
            <mxPoint x="560" y="180" as="sourcePoint" />
            <mxPoint x="580" y="160" as="targetPoint" />
          </mxGeometry>
        </mxCell>
        <mxCell id="X9wXeaOY0Pi4Yc3S6K9o-31" value="" style="endArrow=none;html=1;rounded=0;" edge="1" parent="1">
          <mxGeometry width="50" height="50" relative="1" as="geometry">
            <mxPoint x="580" y="180" as="sourcePoint" />
            <mxPoint x="600" y="160" as="targetPoint" />
          </mxGeometry>
        </mxCell>
        <mxCell id="X9wXeaOY0Pi4Yc3S6K9o-32" value="" style="endArrow=none;html=1;rounded=0;" edge="1" parent="1">
          <mxGeometry width="50" height="50" relative="1" as="geometry">
            <mxPoint x="440" y="280" as="sourcePoint" />
            <mxPoint x="420" y="260" as="targetPoint" />
          </mxGeometry>
        </mxCell>
        <mxCell id="X9wXeaOY0Pi4Yc3S6K9o-33" value="" style="endArrow=none;html=1;rounded=0;" edge="1" parent="1">
          <mxGeometry width="50" height="50" relative="1" as="geometry">
            <mxPoint x="460" y="280" as="sourcePoint" />
            <mxPoint x="440" y="260" as="targetPoint" />
          </mxGeometry>
        </mxCell>
        <mxCell id="X9wXeaOY0Pi4Yc3S6K9o-34" value="" style="endArrow=none;html=1;rounded=0;" edge="1" parent="1">
          <mxGeometry width="50" height="50" relative="1" as="geometry">
            <mxPoint x="500" y="280" as="sourcePoint" />
            <mxPoint x="480" y="260" as="targetPoint" />
          </mxGeometry>
        </mxCell>
        <mxCell id="X9wXeaOY0Pi4Yc3S6K9o-35" value="" style="endArrow=none;html=1;rounded=0;" edge="1" parent="1">
          <mxGeometry width="50" height="50" relative="1" as="geometry">
            <mxPoint x="480" y="280" as="sourcePoint" />
            <mxPoint x="460" y="260" as="targetPoint" />
          </mxGeometry>
        </mxCell>
        <mxCell id="X9wXeaOY0Pi4Yc3S6K9o-38" value="" style="endArrow=none;html=1;rounded=0;" edge="1" parent="1">
          <mxGeometry width="50" height="50" relative="1" as="geometry">
            <mxPoint x="520" y="280" as="sourcePoint" />
            <mxPoint x="500" y="260" as="targetPoint" />
          </mxGeometry>
        </mxCell>
        <mxCell id="X9wXeaOY0Pi4Yc3S6K9o-39" value="" style="endArrow=none;html=1;rounded=0;" edge="1" parent="1">
          <mxGeometry width="50" height="50" relative="1" as="geometry">
            <mxPoint x="540" y="280" as="sourcePoint" />
            <mxPoint x="520" y="260" as="targetPoint" />
          </mxGeometry>
        </mxCell>
        <mxCell id="X9wXeaOY0Pi4Yc3S6K9o-40" value="" style="endArrow=none;html=1;rounded=0;" edge="1" parent="1">
          <mxGeometry width="50" height="50" relative="1" as="geometry">
            <mxPoint x="580" y="280" as="sourcePoint" />
            <mxPoint x="560" y="260" as="targetPoint" />
          </mxGeometry>
        </mxCell>
        <mxCell id="X9wXeaOY0Pi4Yc3S6K9o-41" value="" style="endArrow=none;html=1;rounded=0;" edge="1" parent="1">
          <mxGeometry width="50" height="50" relative="1" as="geometry">
            <mxPoint x="560" y="280" as="sourcePoint" />
            <mxPoint x="540" y="260" as="targetPoint" />
          </mxGeometry>
        </mxCell>
        <mxCell id="X9wXeaOY0Pi4Yc3S6K9o-42" value="" style="endArrow=none;html=1;rounded=0;" edge="1" parent="1">
          <mxGeometry width="50" height="50" relative="1" as="geometry">
            <mxPoint x="600" y="280" as="sourcePoint" />
            <mxPoint x="580" y="260" as="targetPoint" />
          </mxGeometry>
        </mxCell>
        <mxCell id="X9wXeaOY0Pi4Yc3S6K9o-48" value="" style="endArrow=none;html=1;rounded=0;exitX=0.003;exitY=0.165;exitDx=0;exitDy=0;exitPerimeter=0;" edge="1" parent="1" source="X9wXeaOY0Pi4Yc3S6K9o-18">
          <mxGeometry width="50" height="50" relative="1" as="geometry">
            <mxPoint x="210.09" y="270" as="sourcePoint" />
            <mxPoint x="210.09" y="290" as="targetPoint" />
          </mxGeometry>
        </mxCell>
        <mxCell id="X9wXeaOY0Pi4Yc3S6K9o-49" value="" style="endArrow=none;html=1;rounded=0;exitX=-0.005;exitY=0.031;exitDx=0;exitDy=0;exitPerimeter=0;" edge="1" parent="1" source="X9wXeaOY0Pi4Yc3S6K9o-18">
          <mxGeometry width="50" height="50" relative="1" as="geometry">
            <mxPoint x="210.09" y="282" as="sourcePoint" />
            <mxPoint x="200" y="290" as="targetPoint" />
          </mxGeometry>
        </mxCell>
        <mxCell id="X9wXeaOY0Pi4Yc3S6K9o-50" value="" style="endArrow=none;html=1;rounded=0;exitX=0.002;exitY=0.288;exitDx=0;exitDy=0;exitPerimeter=0;" edge="1" parent="1" source="X9wXeaOY0Pi4Yc3S6K9o-18">
          <mxGeometry width="50" height="50" relative="1" as="geometry">
            <mxPoint x="210.09" y="282" as="sourcePoint" />
            <mxPoint x="220.09" y="290" as="targetPoint" />
          </mxGeometry>
        </mxCell>
        <mxCell id="X9wXeaOY0Pi4Yc3S6K9o-51" value="" style="endArrow=none;html=1;rounded=0;exitX=-0.007;exitY=0.55;exitDx=0;exitDy=0;exitPerimeter=0;" edge="1" parent="1" source="X9wXeaOY0Pi4Yc3S6K9o-18">
          <mxGeometry width="50" height="50" relative="1" as="geometry">
            <mxPoint x="228.45000000000002" y="270" as="sourcePoint" />
            <mxPoint x="240.09" y="290" as="targetPoint" />
          </mxGeometry>
        </mxCell>
        <mxCell id="X9wXeaOY0Pi4Yc3S6K9o-52" value="" style="endArrow=none;html=1;rounded=0;exitX=-0.01;exitY=0.42;exitDx=0;exitDy=0;exitPerimeter=0;" edge="1" parent="1" source="X9wXeaOY0Pi4Yc3S6K9o-18">
          <mxGeometry width="50" height="50" relative="1" as="geometry">
            <mxPoint x="218.45000000000002" y="270" as="sourcePoint" />
            <mxPoint x="230.09" y="290" as="targetPoint" />
          </mxGeometry>
        </mxCell>
        <mxCell id="X9wXeaOY0Pi4Yc3S6K9o-53" value="" style="endArrow=none;html=1;rounded=0;exitX=-0.007;exitY=0.671;exitDx=0;exitDy=0;exitPerimeter=0;" edge="1" parent="1" source="X9wXeaOY0Pi4Yc3S6K9o-18">
          <mxGeometry width="50" height="50" relative="1" as="geometry">
            <mxPoint x="237.45000000000002" y="270" as="sourcePoint" />
            <mxPoint x="250.09" y="290" as="targetPoint" />
          </mxGeometry>
        </mxCell>
        <mxCell id="X9wXeaOY0Pi4Yc3S6K9o-54" value="" style="endArrow=none;html=1;rounded=0;exitX=-0.005;exitY=0.804;exitDx=0;exitDy=0;exitPerimeter=0;" edge="1" parent="1" source="X9wXeaOY0Pi4Yc3S6K9o-18">
          <mxGeometry width="50" height="50" relative="1" as="geometry">
            <mxPoint x="248.45000000000002" y="270" as="sourcePoint" />
            <mxPoint x="260.09" y="290" as="targetPoint" />
          </mxGeometry>
        </mxCell>
        <mxCell id="X9wXeaOY0Pi4Yc3S6K9o-55" value="" style="endArrow=classic;html=1;rounded=0;exitX=1;exitY=0.5;exitDx=0;exitDy=0;" edge="1" parent="1" source="X9wXeaOY0Pi4Yc3S6K9o-13">
          <mxGeometry width="50" height="50" relative="1" as="geometry">
            <mxPoint x="230" y="210" as="sourcePoint" />
            <mxPoint x="620" y="220" as="targetPoint" />
          </mxGeometry>
        </mxCell>
        <mxCell id="X9wXeaOY0Pi4Yc3S6K9o-5" value="" style="ellipse;whiteSpace=wrap;html=1;aspect=fixed;" vertex="1" parent="1">
          <mxGeometry x="505" y="215" width="10" height="10" as="geometry" />
        </mxCell>
        <mxCell id="X9wXeaOY0Pi4Yc3S6K9o-56" value="" style="endArrow=classic;html=1;rounded=0;exitX=0.5;exitY=0;exitDx=0;exitDy=0;" edge="1" parent="1" source="X9wXeaOY0Pi4Yc3S6K9o-13">
          <mxGeometry width="50" height="50" relative="1" as="geometry">
            <mxPoint x="220" y="200" as="sourcePoint" />
            <mxPoint x="225" y="40" as="targetPoint" />
          </mxGeometry>
        </mxCell>
        <mxCell id="X9wXeaOY0Pi4Yc3S6K9o-57" value="Y" style="text;strokeColor=none;align=center;fillColor=none;html=1;verticalAlign=middle;whiteSpace=wrap;rounded=0;" vertex="1" parent="1">
          <mxGeometry x="195.09" y="10" width="60" height="30" as="geometry" />
        </mxCell>
        <mxCell id="X9wXeaOY0Pi4Yc3S6K9o-58" value="X" style="text;strokeColor=none;align=center;fillColor=none;html=1;verticalAlign=middle;whiteSpace=wrap;rounded=0;" vertex="1" parent="1">
          <mxGeometry x="620" y="205" width="60" height="30" as="geometry" />
        </mxCell>
        <mxCell id="X9wXeaOY0Pi4Yc3S6K9o-59" value="O" style="text;strokeColor=none;align=center;fillColor=none;html=1;verticalAlign=middle;whiteSpace=wrap;rounded=0;" vertex="1" parent="1">
          <mxGeometry x="180" y="205" width="60" height="30" as="geometry" />
        </mxCell>
        <mxCell id="X9wXeaOY0Pi4Yc3S6K9o-60" value="A" style="text;strokeColor=none;align=center;fillColor=none;html=1;verticalAlign=middle;whiteSpace=wrap;rounded=0;" vertex="1" parent="1">
          <mxGeometry x="325" y="100" width="60" height="30" as="geometry" />
        </mxCell>
        <mxCell id="X9wXeaOY0Pi4Yc3S6K9o-61" value="B" style="text;strokeColor=none;align=center;fillColor=none;html=1;verticalAlign=middle;whiteSpace=wrap;rounded=0;" vertex="1" parent="1">
          <mxGeometry x="490" y="190" width="60" height="30" as="geometry" />
        </mxCell>
        <mxCell id="X9wXeaOY0Pi4Yc3S6K9o-62" value="" style="curved=1;endArrow=classic;html=1;rounded=0;" edge="1" parent="1">
          <mxGeometry width="50" height="50" relative="1" as="geometry">
            <mxPoint x="291" y="177" as="sourcePoint" />
            <mxPoint x="305" y="220" as="targetPoint" />
            <Array as="points">
              <mxPoint x="299" y="181" />
              <mxPoint x="309" y="191" />
              <mxPoint x="312" y="204" />
            </Array>
          </mxGeometry>
        </mxCell>
        <mxCell id="X9wXeaOY0Pi4Yc3S6K9o-64" value="&lt;span style=&quot;font-family: Arial, sans-serif; font-size: 14px; text-align: start; background-color: rgb(255, 255, 255);&quot;&gt;φ&lt;/span&gt;" style="text;strokeColor=none;align=center;fillColor=none;html=1;verticalAlign=middle;whiteSpace=wrap;rounded=0;" vertex="1" parent="1">
          <mxGeometry x="265" y="180" width="60" height="30" as="geometry" />
        </mxCell>
        <mxCell id="X9wXeaOY0Pi4Yc3S6K9o-66" value="" style="endArrow=none;html=1;rounded=0;entryX=0.5;entryY=1;entryDx=0;entryDy=0;exitX=0.5;exitY=0;exitDx=0;exitDy=0;dashed=1;" edge="1" parent="1" source="X9wXeaOY0Pi4Yc3S6K9o-67" target="X9wXeaOY0Pi4Yc3S6K9o-11">
          <mxGeometry width="50" height="50" relative="1" as="geometry">
            <mxPoint x="357" y="220" as="sourcePoint" />
            <mxPoint x="432" y="161" as="targetPoint" />
          </mxGeometry>
        </mxCell>
        <mxCell id="X9wXeaOY0Pi4Yc3S6K9o-67" value="" style="ellipse;whiteSpace=wrap;html=1;aspect=fixed;" vertex="1" parent="1">
          <mxGeometry x="350" y="215" width="10" height="10" as="geometry" />
        </mxCell>
        <mxCell id="X9wXeaOY0Pi4Yc3S6K9o-68" value="H" style="text;strokeColor=none;align=center;fillColor=none;html=1;verticalAlign=middle;whiteSpace=wrap;rounded=0;" vertex="1" parent="1">
          <mxGeometry x="325" y="225" width="60" height="30" as="geometry" />
        </mxCell>
      </root>
    </mxGraphModel>
  </diagram>
</mxfile>
